# xmcd CD database file
#
# Track frame offsets:
#	150
#	11669
#	23256
#	36168
#	47859
#	58707
#	74223
#	88435
#	98405
#	112269
#	123959
#	137398
#	147894
#
# Disc length: 2153 seconds
#
# Revision: 0
# Processed by: cddbd v1.5.2PL0 Copyright (c) Steve Scherf et al.
# Submitted via: CDex 1.51
#
DISCID=b508670d
DTITLE=B.B. King - Original Blues Sessions [CD2]
DYEAR=2007
DGENRE=Blues
TTITLE0=She's A Mean Woman
TTITLE1=Hard Working Woman
TTITLE2=Some Day Somewhere
TTITLE3=Shake  It Up And Go
TTITLE4=Gotta Find My Baby
TTITLE5=Precious Lord
TTITLE6=Save A Seat For Me
TTITLE7=Swing Low Sweet Chariot/ Rock Me Lord
TTITLE8=Jesus Gave Me Water
TTITLE9=I Never Heard A Man
TTITLE10=Army Of The Lord
TTITLE11=I'm Willing To Run All The Way
TTITLE12=Servant's Prayer
EXTD=YEAR: 2007
EXTT0=
EXTT1=
EXTT2=
EXTT3=
EXTT4=
EXTT5=
EXTT6=
EXTT7=
EXTT8=
EXTT9=
EXTT10=
EXTT11=
EXTT12=
PLAYORDER=
